<?xml version="1.0" standalone="no"?>
<!DOCTYPE svg PUBLIC "-//W3C//DTD SVG 20010904//EN"
 "http://www.w3.org/TR/2001/REC-SVG-20010904/DTD/svg10.dtd">
<svg version="1.0" xmlns="http://www.w3.org/2000/svg"
 width="2342.000000pt" height="525.000000pt" viewBox="0 0 2342.000000 525.000000"
 preserveAspectRatio="xMidYMid meet">

<g transform="translate(0.000000,525.000000) scale(0.100000,-0.100000)"
fill="#000000" stroke="none">
<path d="M4637 5230 c-227 -58 -349 -320 -248 -536 103 -221 379 -287 578
-140 143 106 191 309 111 474 -31 65 -116 148 -184 179 -62 28 -189 40 -257
23z"/>
<path d="M7381 4039 c-408 -46 -779 -202 -1079 -453 -366 -307 -604 -776 -662
-1301 -13 -118 -13 -371 1 -493 86 -796 568 -1425 1280 -1670 229 -79 435
-112 695 -112 312 0 564 45 832 150 218 85 442 221 604 367 107 97 131 126
166 200 23 50 27 70 27 153 0 84 -3 102 -28 152 -64 131 -217 203 -375 177
-91 -14 -174 -55 -277 -138 -241 -193 -437 -291 -665 -332 -109 -20 -392 -17
-504 5 -443 87 -758 346 -895 738 -23 66 -61 224 -61 254 0 2 638 5 1418 6
l1417 3 67 32 c82 39 145 100 183 177 35 72 43 172 26 338 -96 929 -709 1594
-1599 1734 -118 18 -455 26 -571 13z m502 -730 c371 -74 646 -296 788 -638 31
-74 70 -217 83 -298 l6 -43 -1161 0 -1161 0 7 43 c57 364 275 671 590 829 252
127 556 165 848 107z"/>
<path d="M16772 3994 c-18 -9 -44 -31 -56 -48 -13 -17 -309 -837 -676 -1869
-600 -1689 -652 -1842 -648 -1887 6 -57 41 -110 91 -138 30 -16 238 -17 3882
-20 2822 -2 3861 0 3891 9 47 12 86 45 111 92 15 29 18 185 34 1872 13 1297
15 1850 8 1873 -14 44 -56 92 -95 108 -26 11 -599 15 -3271 19 -3055 6 -3240
5 -3271 -11z m792 -526 c14 -13 106 -195 215 -423 l190 -399 50 104 c212 452
334 698 357 718 38 33 105 31 139 -5 14 -15 25 -30 25 -33 0 -3 29 -242 65
-533 67 -549 68 -563 27 -593 -9 -8 -34 -14 -55 -14 -45 0 -97 43 -97 82 -1
41 -86 738 -91 743 -3 2 -77 -142 -164 -321 -109 -223 -168 -333 -188 -350
-40 -34 -102 -33 -139 1 -16 15 -95 161 -189 353 -89 180 -163 320 -165 312
-2 -8 -22 -175 -44 -370 -22 -195 -43 -366 -46 -378 -8 -41 -49 -72 -91 -72
-50 0 -81 22 -88 63 -5 25 98 923 121 1056 3 18 16 44 29 57 33 33 103 34 139
2z m3818 11 c46 -25 48 -45 48 -587 0 -337 -4 -519 -11 -540 -23 -66 -100 -83
-150 -33 l-29 29 0 540 0 540 26 31 c28 33 75 42 116 20z m894 -8 c17 -10 38
-34 46 -52 35 -73 388 -1021 388 -1040 0 -51 -39 -88 -92 -89 -58 0 -80 29
-133 173 l-48 127 -237 0 -237 0 -52 -135 c-57 -147 -72 -165 -134 -165 -49 0
-87 35 -87 82 0 17 86 262 192 543 219 581 216 575 310 575 34 0 64 -7 84 -19z
m-2631 3 c19 -8 45 -55 45 -84 0 -12 -13 -35 -29 -51 l-29 -29 -241 0 -241 0
0 -169 0 -170 211 -3 211 -3 24 -28 c13 -16 24 -41 24 -57 0 -16 -11 -41 -24
-57 l-24 -28 -211 -3 -211 -3 0 -160 0 -159 249 0 c248 0 250 0 277 -24 37
-31 38 -84 4 -121 l-23 -25 -318 0 -318 0 -28 24 -28 24 0 542 0 542 28 24 28
24 304 0 c167 0 311 -3 320 -6z m936 -10 c89 -27 150 -63 214 -128 110 -111
165 -261 165 -446 -1 -294 -147 -513 -385 -575 -45 -11 -117 -15 -305 -15
-275 0 -281 1 -300 68 -6 23 -10 219 -10 522 0 303 4 499 10 522 19 67 25 68
305 68 202 0 262 -3 306 -16z m-3086 -1609 c81 -21 173 -65 218 -105 31 -27
37 -39 37 -72 0 -30 -7 -46 -29 -69 -40 -39 -69 -37 -157 11 -137 76 -270 85
-402 25 -197 -90 -299 -351 -220 -564 28 -74 48 -105 104 -163 92 -94 234
-141 368 -119 138 23 224 84 277 196 48 99 53 95 -128 95 -147 0 -158 1 -180
22 -30 28 -31 83 -1 115 21 23 23 23 265 23 235 0 244 -1 264 -21 20 -20 21
-29 15 -96 -19 -235 -156 -419 -366 -495 -57 -20 -83 -23 -215 -23 -138 1
-155 3 -217 27 -180 72 -323 221 -379 398 -30 93 -37 249 -14 343 33 140 107
261 215 351 56 46 172 105 242 122 75 18 232 17 303 -1z m2507 4 c29 -6 91
-29 138 -51 113 -54 228 -167 282 -278 89 -181 88 -413 -2 -591 -75 -146 -234
-271 -401 -314 -98 -26 -281 -17 -371 18 -179 69 -318 214 -378 397 -30 90
-37 242 -16 339 48 224 219 407 441 472 70 20 227 25 307 8z m882 -19 c20 -20
21 -33 26 -433 5 -394 6 -414 26 -457 24 -50 73 -104 115 -126 129 -66 293
-19 363 106 l31 55 5 418 5 419 24 19 c33 27 67 33 102 19 60 -25 60 -28 57
-493 -3 -415 -3 -423 -26 -480 -44 -109 -140 -205 -249 -248 -50 -20 -75 -24
-183 -24 -106 0 -133 4 -180 23 -111 44 -207 141 -253 252 -21 53 -22 67 -25
475 -3 377 -2 423 13 451 9 18 27 37 38 43 31 15 87 5 111 -19z m-2119 5 c176
-46 277 -206 262 -415 -10 -147 -74 -252 -189 -309 -34 -17 -71 -31 -84 -31
-13 0 -25 -4 -28 -8 -2 -4 48 -81 111 -171 98 -137 116 -169 117 -202 1 -55
-38 -94 -94 -93 -23 1 -49 9 -59 18 -10 9 -83 113 -161 231 l-143 215 -64 0
-63 0 0 -185 c0 -215 -8 -247 -65 -271 -43 -17 -75 -11 -107 23 l-23 25 -3
551 c-3 498 -1 555 13 583 10 18 27 37 38 42 37 18 471 15 542 -3z m3807 -23
c77 -38 130 -92 167 -171 24 -51 26 -66 26 -186 0 -121 -2 -134 -27 -185 -40
-81 -79 -122 -150 -161 l-63 -34 -212 -3 -213 -3 0 -185 c0 -214 -8 -246 -65
-270 -45 -18 -78 -10 -110 28 l-25 30 0 545 c0 589 1 595 53 621 15 8 110 11
287 9 l266 -2 66 -33z"/>
<path d="M22115 3008 c-43 -123 -80 -229 -83 -235 -3 -10 35 -13 168 -13 133
0 171 3 168 13 -130 365 -164 457 -169 457 -3 0 -40 -100 -84 -222z"/>
<path d="M20150 2891 l0 -421 168 0 c222 1 293 24 369 124 54 71 75 138 81
260 7 167 -30 286 -115 368 -74 72 -114 83 -320 86 l-183 4 0 -421z"/>
<path d="M19745 1666 c-210 -67 -341 -280 -305 -497 25 -149 115 -269 248
-332 63 -30 74 -32 177 -32 99 0 116 3 169 28 165 77 257 223 257 407 0 207
-125 376 -316 426 -62 17 -177 17 -230 0z"/>
<path d="M18370 1466 l0 -216 138 0 c202 1 243 15 292 101 20 35 25 58 25 114
0 86 -28 148 -82 185 -35 24 -44 25 -205 28 l-168 3 0 -215z"/>
<path d="M22100 1465 l0 -215 148 0 c217 0 265 18 311 120 52 115 -5 271 -109
300 -19 5 -106 10 -192 10 l-158 0 0 -215z"/>
<path d="M270 3985 c-180 -50 -294 -231 -261 -411 9 -52 170 -394 803 -1712
435 -906 804 -1666 821 -1689 109 -153 341 -189 502 -78 29 19 65 54 82 78 17
23 386 783 821 1689 635 1321 794 1660 803 1711 34 186 -83 365 -271 413 -141
36 -304 -21 -382 -133 -16 -24 -305 -618 -642 -1319 -337 -701 -617 -1275
-621 -1275 -4 0 -284 573 -620 1275 -337 701 -627 1294 -643 1318 -78 113
-251 172 -392 133z"/>
<path d="M9999 3987 c-100 -29 -199 -112 -242 -205 -17 -38 -21 -67 -22 -147
l0 -100 633 -1650 c426 -1111 645 -1667 668 -1703 23 -34 56 -66 94 -92 175
-112 406 -64 514 108 12 21 233 587 491 1260 258 672 471 1219 475 1215 4 -4
246 -555 539 -1223 293 -668 548 -1239 567 -1268 118 -180 401 -204 557 -47
24 24 53 64 64 87 12 24 304 779 649 1678 l628 1635 0 95 c1 83 -2 102 -26
152 -37 79 -98 142 -177 181 -59 29 -74 32 -156 32 -76 0 -99 -4 -147 -27 -75
-35 -138 -95 -175 -165 -16 -32 -234 -592 -484 -1245 -250 -654 -456 -1188
-459 -1188 -3 0 -246 549 -540 1220 -297 677 -549 1240 -568 1265 -149 206
-503 182 -624 -42 -14 -26 -225 -568 -468 -1203 -243 -635 -446 -1162 -450
-1170 -8 -13 -9 -13 -14 0 -107 290 -905 2358 -922 2387 -33 58 -106 119 -173
144 -69 26 -170 33 -232 16z"/>
<path d="M4661 3980 c-109 -23 -203 -96 -253 -198 l-33 -67 0 -1715 0 -1715
27 -57 c32 -69 98 -137 170 -175 49 -26 62 -28 163 -28 101 0 114 2 163 28 72
38 132 100 168 173 l29 59 3 1695 c2 1869 6 1746 -60 1846 -80 118 -238 183
-377 154z"/>
</g>
</svg>
